<?xml version="1.0" encoding="iso-8859-1"?>
<!-- Uploaded to: SVG Repo, www.svgrepo.com, Generator: SVG Repo Mixer Tools -->
<svg height="800px" width="800px" version="1.1" id="Layer_1" xmlns="http://www.w3.org/2000/svg" xmlns:xlink="http://www.w3.org/1999/xlink" 
	 viewBox="0 0 511.6 511.6" xml:space="preserve">
<path style="fill:#48CFAD;" d="M467.195,490.351l-28.432-341.218c-0.967-11.678-11.365-21.233-23.091-21.233H95.923
	c-11.726,0-22.108,9.556-23.092,21.233l-28.43,341.218C43.433,502.03,52.223,511.6,63.948,511.6h383.701
	C459.373,511.6,468.179,502.029,467.195,490.351z"/>
<path d="M170.536,170.523c0,5.887-4.777,10.664-10.664,10.664c-5.886,0-10.648-4.777-10.648-10.664
	c0-5.886,4.762-10.647,10.648-10.647C165.759,159.875,170.536,164.637,170.536,170.523z"/>
<path d="M362.387,170.523c0,5.887-4.777,10.664-10.664,10.664c-5.886,0-10.648-4.777-10.648-10.664
	c0-5.886,4.763-10.647,10.648-10.647C357.61,159.875,362.387,164.637,362.387,170.523z"/>
<path style="fill:#48CFAD;" d="M341.074,170.616c-0.016-0.374-0.515-39.25-12.178-77.299
	c-14.645-47.791-39.234-72.006-73.099-72.006c-33.958,0-58.58,24.355-73.208,72.381c-11.585,38.063-12.053,76.55-12.053,76.924
	l-21.312-0.188c0.016-1.686,0.5-41.982,12.974-82.95C179.623,30.242,211.988,0,255.798,0s76.175,30.242,93.599,87.479
	c12.475,40.968,12.975,81.265,12.99,82.95L341.074,170.616z"/>
<path style="fill:#E6E9ED;" d="M106.18,221.608c2.249,1.109,7.338,1.109,9.571-0.016l29.227-14.613
	c8.291-4.138,20.312-4.138,28.603,0l29.228,14.613c2.232,1.109,7.307,1.109,9.539,0l29.228-14.613
	c8.274-4.138,20.312-4.138,28.587,0l29.242,14.613c2.217,1.109,7.307,1.109,9.523,0l29.228-14.613c8.29-4.138,20.312-4.138,28.603,0
	l29.227,14.613c2.233,1.109,7.308,1.109,9.524,0l37.721-18.891l-4.466-53.568c-0.967-11.678-11.365-21.233-23.091-21.233H95.923
	c-11.726,0-22.108,9.556-23.092,21.233l-4.465,53.662L106.18,221.608z"/>
<g>
	<path style="fill:#F5F7FA;" d="M166.867,341.983c-18.876-5.324-28.993-5.979-28.993-14.223c0-6.792,5.73-10.773,15.301-10.773
		c11.038,0,17.158,4.918,17.955,14.099h19.688c-0.406-21.155-16.503-30.195-36.44-30.195c-22.077,0-36.456,11.163-36.456,28.321
		c0,19.282,14.77,23.154,30.195,27.541c19.563,5.574,25.949,6.917,25.949,14.364c0,7.837-6.651,12.631-17.564,12.631
		c-12.631,0-21.015-5.059-21.421-17.83h-20.609c0.265,21.421,15.425,33.786,41.093,33.786c19.297,0,38.97-8.244,38.97-30.586
		C194.533,353.286,183.76,346.776,166.867,341.983z"/>
	<polygon style="fill:#F5F7FA;" points="236.313,356.877 282.606,356.877 282.606,340.515 236.313,340.515 236.313,319.906 
		286.727,319.906 286.727,302.888 215.704,302.888 215.704,397.58 287.664,397.58 287.664,380.156 236.313,380.156 	"/>
	<path style="fill:#F5F7FA;" d="M350.708,300.624c-28.321,0-46.948,19.673-46.948,49.742c0,29.649,18.752,49.478,46.823,49.478
		c27.791,0,46.558-19.953,46.558-49.478C397.141,320.702,378.374,300.624,350.708,300.624z M350.708,382.685
		c-16.081-0.14-25.933-12.365-25.933-32.724c0-19.688,9.977-32.318,25.667-32.318c15.831,0,25.683,12.365,25.683,32.318
		C376.125,370.179,366.414,382.685,350.708,382.685z"/>
</g>
<path style="fill:#37BC9B;" d="M44.401,490.351C43.433,502.03,52.223,511.6,63.948,511.6h383.701c11.725,0,20.53-9.57,19.547-21.249
	l-1.78-21.39H46.18L44.401,490.351z"/>
</svg>