<?xml version="1.0" encoding="iso-8859-1"?>
<!-- Uploaded to: SVG Repo, www.svgrepo.com, Generator: SVG Repo Mixer Tools -->
<svg version="1.1" id="Layer_1" xmlns="http://www.w3.org/2000/svg" xmlns:xlink="http://www.w3.org/1999/xlink" 
	 viewBox="0 0 511.6 511.6" xml:space="preserve">
<path style="fill:#E6E9ED;" d="M468.961,117.24V63.939c0-11.772-9.539-21.312-21.311-21.312H21.312C9.539,42.627,0,52.166,0,63.939
	v53.302L468.961,117.24L468.961,117.24z"/>
<polygon style="fill:#F5F7FA;" points="468.961,405.024 395.878,405.024 0,405.024 0,85.266 468.961,85.266 468.961,308.411 "/>
<path style="fill:#ED5564;" d="M42.623,63.939c0,5.886-4.763,10.663-10.648,10.663s-10.663-4.777-10.663-10.663
	c0-5.887,4.777-10.648,10.663-10.648S42.623,58.052,42.623,63.939z"/>
<path style="fill:#FFCE54;" d="M74.598,63.939c0,5.886-4.762,10.663-10.647,10.663c-5.887,0-10.664-4.777-10.664-10.663
	c0-5.887,4.777-10.648,10.664-10.648C69.836,53.29,74.598,58.052,74.598,63.939z"/>
<g>
	<path style="fill:#A0D468;" d="M106.572,63.939c0,5.886-4.762,10.663-10.647,10.663s-10.663-4.777-10.663-10.663
		c0-5.887,4.777-10.648,10.663-10.648S106.572,58.052,106.572,63.939z"/>
	<rect x="42.623" y="298.42" style="fill:#A0D468;" width="181.2" height="106.6"/>
	<rect x="245.14" y="298.42" style="fill:#A0D468;" width="181.19" height="106.6"/>
</g>
<path d="M362.373,202.502c0,5.886-4.762,10.663-10.648,10.663c-5.886,0-10.664-4.777-10.664-10.663
	c0-5.887,4.778-10.664,10.664-10.664C357.612,191.838,362.373,196.615,362.373,202.502z"/>
<path d="M127.9,202.502c0,5.886-4.777,10.663-10.663,10.663s-10.664-4.777-10.664-10.663c0-5.887,4.778-10.664,10.664-10.664
	S127.9,196.615,127.9,202.502z"/>
<rect x="42.623" y="127.89" style="fill:#FFCE54;" width="383.7" height="149.24"/>
<path style="fill:#434A54;" d="M351.725,213.165H117.237c-5.886,0-10.664-4.777-10.664-10.663c0-5.887,4.778-10.664,10.664-10.664
	h234.488c5.887,0,10.648,4.777,10.648,10.664C362.373,208.388,357.612,213.165,351.725,213.165z"/>
<g>
	<path style="fill:#E9573F;" d="M511.6,341.073c0,64.73-52.49,117.221-117.252,117.221c-64.746,0-117.236-52.49-117.236-117.221
		c0-64.763,52.49-117.26,117.236-117.26C459.11,223.814,511.6,276.311,511.6,341.073z"/>
	<path style="fill:#E9573F;" d="M511.6,351.721c0,64.762-52.49,117.252-117.252,117.252c-64.746,0-117.236-52.49-117.236-117.252
		s52.49-117.244,117.236-117.244C459.11,234.477,511.6,286.959,511.6,351.721z"/>
</g>
<path style="fill:#FC6E51;" d="M511.6,330.394c0,64.763-52.49,117.253-117.252,117.253c-64.746,0-117.236-52.49-117.236-117.253
	c0-64.738,52.49-117.229,117.236-117.229C459.11,213.165,511.6,265.655,511.6,330.394z"/>
<g>
	<path style="fill:#E9573F;" d="M405.012,234.477c0,5.886-4.777,10.664-10.664,10.664c-5.886,0-10.648-4.778-10.648-10.664
		s4.763-10.663,10.648-10.663C400.235,223.814,405.012,228.591,405.012,234.477z"/>
	<path style="fill:#E9573F;" d="M355.628,242.002c2.935,5.09,1.187,11.616-3.903,14.552c-5.105,2.95-11.615,1.202-14.566-3.903
		c-2.936-5.09-1.188-11.616,3.902-14.552C346.166,235.149,352.678,236.897,355.628,242.002z"/>
	<path style="fill:#E9573F;" d="M316.612,273.22c5.09,2.936,6.839,9.462,3.903,14.552c-2.95,5.089-9.462,6.838-14.566,3.902
		c-5.09-2.935-6.839-9.461-3.903-14.551C304.996,272.002,311.506,270.262,316.612,273.22z"/>
	<path style="fill:#E9573F;" d="M298.423,319.746c5.886,0,10.663,4.777,10.663,10.647c0,5.901-4.777,10.68-10.663,10.648
		c-5.886,0.031-10.647-4.747-10.647-10.648C287.776,324.524,292.537,319.746,298.423,319.746z"/>
	<path style="fill:#E9573F;" d="M490.274,319.746c5.9,0,10.663,4.777,10.663,10.647c0,5.901-4.763,10.68-10.663,10.68
		c-5.887,0-10.648-4.778-10.648-10.68C479.625,324.524,484.387,319.746,490.274,319.746z"/>
	<path style="fill:#E9573F;" d="M472.1,273.22c5.09-2.958,11.615-1.218,14.551,3.903c2.951,5.09,1.202,11.616-3.887,14.551
		c-5.105,2.936-11.617,1.187-14.567-3.902C465.262,282.682,466.994,276.155,472.1,273.22z"/>
	<path style="fill:#E9573F;" d="M433.083,242.002c2.95-5.105,9.462-6.854,14.567-3.903c5.09,2.936,6.838,9.462,3.902,14.552
		c-2.951,5.105-9.461,6.854-14.566,3.903C431.897,253.618,430.149,247.092,433.083,242.002z"/>
</g>
<path style="fill:#434A54;" d="M394.348,266.451c-5.886,0-10.648,4.778-10.648,10.672v63.95h21.312v-63.95
	C405.012,271.23,400.235,266.451,394.348,266.451z"/>
<path style="fill:#656D78;" d="M415.675,330.394c0,11.772-9.556,21.327-21.327,21.327s-21.312-9.555-21.312-21.327
	c0-11.771,9.54-21.296,21.312-21.296S415.675,318.622,415.675,330.394z"/>
</svg>