<svg xmlns="http://www.w3.org/2000/svg" version="1.1" xmlns:xlink="http://www.w3.org/1999/xlink" xmlns:svgjs="http://svgjs.dev/svgjs" viewBox="0 0 800 800" opacity="1"><defs><symbol id="bbburst-shape-1" viewBox="0 0 194 167"><path d="m97 0 96.129 166.5H.871L97 0Z"></path></symbol><symbol id="bbburst-shape-4" viewBox="0 0 149 143"><path d="M71.647 2.781c.898-2.764 4.808-2.764 5.706 0l15.445 47.534a3 3 0 0 0 2.853 2.073h49.98c2.906 0 4.115 3.719 1.764 5.427L106.96 87.193a2.999 2.999 0 0 0-1.09 3.354l15.445 47.534c.898 2.764-2.266 5.062-4.617 3.354l-40.435-29.378a3 3 0 0 0-3.526 0l-40.435 29.378c-2.351 1.708-5.515-.59-4.617-3.354L43.13 90.547a3 3 0 0 0-1.09-3.354L1.605 57.815c-2.35-1.708-1.142-5.427 1.764-5.427h49.98a3 3 0 0 0 2.853-2.073L71.647 2.781Z"></path></symbol><symbol id="bbburst-shape-6" viewBox="0 0 133 116"><path d="M59.7487 10.2513c-13.6683-13.66839-35.8291-13.66839-49.4974 0-13.66839 13.6683-13.66839 35.8291 0 49.4974l49.4974-49.4974ZM66.5 66.5 41.7513 91.2487 66.5 115.997l24.7487-24.7483L66.5 66.5Zm56.249-6.7513c13.668-13.6683 13.668-35.8291 0-49.4974-13.669-13.66839-35.8294-13.66839-49.4977 0l49.4977 49.4974Zm-112.4977 0 31.5 31.5 49.4974-49.4974-31.5-31.5-49.4974 49.4974Zm80.9974 31.5 31.5003-31.5-49.4977-49.4974-31.5 31.5 49.4974 49.4974Z"></path></symbol><symbol id="bbburst-shape-8" viewBox="0 0 87 168"><path d="m12 12 31.2546 18.0749c16.4102 9.4902 20.014 31.6325 7.4603 45.8369L36.3296 92.1884c-12.5684 14.2206-8.9394 36.3916 7.5068 45.8636L75 156" stroke-width="14" stroke-linecap="round" stroke-linejoin="round"></path></symbol><symbol id="bbburst-shape-10" viewBox="0 0 145 145"><circle cx="72.5" cy="72.5" r="61.5" fill="none" stroke-width="22"></circle></symbol></defs><use xlink:href="#bbburst-shape-10" width="24.168000815438404" opacity="0.8032344744585795" transform="matrix(0.9497216216664702,0.31309557860054504,-0.31309557860054504,0.9497216216664702,308.5406400868966,-355.78170190115225)" fill="none" stroke="#df711b"></use><use xlink:href="#bbburst-shape-6" width="75.72580729271213" opacity="0.0008378186411261979" transform="matrix(0.8568451017574128,0.5155739244709034,-0.5155739244709034,0.8568451017574128,870.0637362944391,354.3467996556784)" fill="#db4a2b"></use><use xlink:href="#bbburst-shape-4" width="54.60248936905663" opacity="0.43794309227430317" transform="matrix(0.7614290079899965,-0.6482483056602385,0.6482483056602385,0.7614290079899965,-33.73820607724127,218.37294053377207)" fill="#df711b"></use><use xlink:href="#bbburst-shape-10" width="51.906558032201865" opacity="0.6310016611691309" transform="matrix(0.7339456177180183,0.6792082377537221,-0.6792082377537221,0.7339456177180183,487.72538907639137,-26.79027126370886)" fill="none" stroke="#df711b"></use><use xlink:href="#bbburst-shape-6" width="29.948306547579374" opacity="0.7989690191757429" transform="matrix(0.8928625596152271,0.45032926802212747,-0.45032926802212747,0.8928625596152271,324.6858180692308,-239.4957900100572)" fill="#db4a2b"></use><use xlink:href="#bbburst-shape-10" width="24.862365762991963" opacity="0.8507037452127468" transform="matrix(0.7958092891149657,-0.6055473353573053,0.6055473353573053,0.7958092891149657,-165.27539926065606,-189.3513508532164)" fill="none" stroke="#df711b"></use><use xlink:href="#bbburst-shape-10" width="20.760373655618828" opacity="0.9162449185679296" transform="matrix(0.8618409527411492,-0.5071786393158018,0.5071786393158018,0.8618409527411492,-135.95035868878279,-303.9881804502974)" fill="none" stroke="#db4a2b"></use><use xlink:href="#bbburst-shape-1" width="27.29354102406568" opacity="0.6891596557389419" transform="matrix(0.9720913046136876,0.23460284630510947,-0.23460284630510947,0.9720913046136876,119.74490993891953,-83.64240439050388)" fill="#db4a2b"></use><use xlink:href="#bbburst-shape-10" width="29.657955264806514" opacity="0.6754087334169138" transform="matrix(0.9949193923112907,0.10067473766011066,-0.10067473766011066,0.9949193923112907,320.01035131025486,-262.95899162250595)" fill="none" stroke="#ffbd9b"></use><use xlink:href="#bbburst-shape-8" width="24.50032040602759" opacity="0.9595556163028643" transform="matrix(0.8105776045634737,-0.585631238050141,0.585631238050141,0.8105776045634737,-219.54683164312115,-284.98132368929254)" fill="none" stroke="#df711b"></use><use xlink:href="#bbburst-shape-10" width="23.645494128510826" opacity="0.8625495508324637" transform="matrix(0.9960873726572494,0.08837389904704798,-0.08837389904704798,0.9960873726572494,152.91939059959145,-352.9807964576877)" fill="none" stroke="#ffbd9b"></use><use xlink:href="#bbburst-shape-10" width="29.19239360872973" opacity="0.695760771935821" transform="matrix(0.8191518715662867,0.5735766830245541,-0.5735766830245541,0.8191518715662867,519.7057524593486,-301.13898322308506)" fill="none" stroke="#df711b"></use><use xlink:href="#bbburst-shape-4" width="45.553971752958255" opacity="0.5542951692094598" transform="matrix(0.9394007877935716,0.3428208860218657,-0.3428208860218657,0.9394007877935716,558.773059886071,-335.00711414724094)" fill="#db4a2b"></use><use xlink:href="#bbburst-shape-4" width="48.16186772018756" opacity="0.4873234269029034" transform="matrix(0.9764141797983347,0.21590588108883305,-0.21590588108883305,0.9764141797983347,538.0222868993268,-203.26720662389786)" fill="#db4a2b"></use><use xlink:href="#bbburst-shape-1" width="44.81928303358048" opacity="0.5793060081901092" transform="matrix(0.9558462977622432,-0.29386707038083254,0.29386707038083254,0.9558462977622432,211.43385989425855,-142.85765509463914)" fill="#df711b"></use><use xlink:href="#bbburst-shape-10" width="32.14746800391249" opacity="0.7994798390709809" transform="matrix(0.9015181936155627,0.4327412004652813,-0.4327412004652813,0.9015181936155627,197.60740011255183,-170.87242454438956)" fill="none" stroke="#ffbd9b"></use><use xlink:href="#bbburst-shape-10" width="58.42149639021798" opacity="0.40824602643109575" transform="matrix(0.9706197671731128,0.24061851045339833,-0.24061851045339833,0.9706197671731128,153.52045820270604,190.2497257589734)" fill="none" stroke="#ffbd9b"></use><use xlink:href="#bbburst-shape-10" width="55.33549461723898" opacity="0.16137873490431986" transform="matrix(0.851547570606055,0.524277345490844,-0.524277345490844,0.851547570606055,591.9299717925828,378.78865690136826)" fill="none" stroke="#db4a2b"></use><use xlink:href="#bbburst-shape-10" width="68.09191186212746" opacity="0.3443809103107821" transform="matrix(0.9114379420788277,0.41143757453483953,-0.41143757453483953,0.9114379420788277,747.3000838050095,-148.06143054905206)" fill="none" stroke="#ffbd9b"></use><use xlink:href="#bbburst-shape-4" width="64.83939338704869" opacity="0.11444224569403016" transform="matrix(0.7990648965570243,-0.6012447846678689,0.6012447846678689,0.7990648965570243,448.1965724074531,222.99069880174028)" fill="#db4a2b"></use><use xlink:href="#bbburst-shape-1" width="38.98552952410694" opacity="0.6111148235835154" transform="matrix(0.9848053840256994,-0.17366161232118815,0.17366161232118815,0.9848053840256994,286.4736875428906,-287.9593060140412)" fill="#df711b"></use><use xlink:href="#bbburst-shape-8" width="75.9118684210142" opacity="0.33617941019123265" transform="matrix(0.8864184856227774,0.4628847246844748,-0.4628847246844748,0.8864184856227774,577.0130873485011,137.3769401458082)" fill="none" stroke="#df711b"></use><use xlink:href="#bbburst-shape-6" width="54.81101998750266" opacity="0.5516048584534183" transform="matrix(0.998030791771843,0.06272590115150412,-0.06272590115150412,0.998030791771843,60.884761840673505,42.995815665220334)" fill="#db4a2b"></use><use xlink:href="#bbburst-shape-4" width="49.12914803238548" opacity="0.19974270262600236" transform="matrix(0.8263720503306086,0.5631245283526425,-0.5631245283526425,0.8263720503306086,937.232192586303,-21.640429315639437)" fill="#df711b"></use><use xlink:href="#bbburst-shape-4" width="27.231732484845615" opacity="0.892786885822523" transform="matrix(0.7805676155743208,-0.6250713539401876,0.6250713539401876,0.7805676155743208,-232.67566733879366,-200.19525302039227)" fill="#db4a2b"></use><use xlink:href="#bbburst-shape-10" width="43.029075910152" opacity="0.5621960735505898" transform="matrix(0.9578074846478064,-0.28741054669695415,0.28741054669695415,0.9578074846478064,44.935521926729166,21.920976225755737)" fill="none" stroke="#df711b"></use><use xlink:href="#bbburst-shape-4" width="33.300285602916375" opacity="0.7591394481342367" transform="matrix(0.946154153557847,-0.3237164155634279,0.3237164155634279,0.946154153557847,79.53608614520016,-286.4762946451896)" fill="#df711b"></use><use xlink:href="#bbburst-shape-1" width="35.007899936704725" opacity="0.7552078126645578" transform="matrix(0.999172032125372,0.04068476641759947,-0.04068476641759947,0.999172032125372,126.11079689215347,-191.2647180763579)" fill="#df711b"></use><use xlink:href="#bbburst-shape-6" width="65.26889224814232" opacity="0.25785423752502823" transform="matrix(0.9063597841536251,0.42250673564926056,-0.42250673564926056,0.9063597841536251,254.32858985177663,356.8650566863234)" fill="#db4a2b"></use><use xlink:href="#bbburst-shape-6" width="43.67242016131591" opacity="0.34509522488461064" transform="matrix(0.9943178373144134,0.10645204741285066,-0.10645204741285066,0.9943178373144134,672.7389279047311,-337.07977135619257)" fill="#df711b"></use><use xlink:href="#bbburst-shape-1" width="66.68106206170278" opacity="0.5014439545851439" transform="matrix(0.9932789438151836,0.11574515010743801,-0.11574515010743801,0.9932789438151836,339.33987857927565,-24.02764885565773)" fill="#db4a2b"></use><use xlink:href="#bbburst-shape-10" width="62.472206265122864" opacity="0.2843050208964709" transform="matrix(0.9706797868765524,0.24037627035398218,-0.24037627035398218,0.9706797868765524,647.7737461059063,20.826291395596513)" fill="none" stroke="#ffbd9b"></use><use xlink:href="#bbburst-shape-4" width="0.1399560469023927" opacity="0.9995913124307004" transform="matrix(0.7878893762615062,0.6158167996849832,-0.6158167996849832,0.7878893762615062,246.56368308711407,-314.9129856036681)" fill="#df711b"></use><use xlink:href="#bbburst-shape-1" width="37.76306671271418" opacity="0.4503288914454282" transform="matrix(0.7190522866067789,-0.694955976393874,0.694955976393874,0.7190522866067789,252.39601820666604,-195.1682842956498)" fill="#df711b"></use><use xlink:href="#bbburst-shape-4" width="48.89086330812794" opacity="0.24292603802961288" transform="matrix(0.794060559296566,0.6078386530730213,-0.6078386530730213,0.794060559296566,971.593710280447,-214.92397656228235)" fill="#df711b"></use><use xlink:href="#bbburst-shape-10" width="71.87940901820609" opacity="0.16258358590207245" transform="matrix(0.9241389763708509,-0.38205647796135583,0.38205647796135583,0.9241389763708509,357.2611711967323,281.3309075161206)" fill="none" stroke="#db4a2b"></use><use xlink:href="#bbburst-shape-6" width="29.963807334330408" opacity="0.707208605593445" transform="matrix(0.9228992038145908,0.38504163359095905,-0.38504163359095905,0.9228992038145908,364.42571390982505,-186.65952624346866)" fill="#ffbd9b"></use><use xlink:href="#bbburst-shape-4" width="59.271116347791775" opacity="0.2924927477896049" transform="matrix(0.9933040260298204,-0.11552970125881024,0.11552970125881024,0.9933040260298204,200.21127546434963,257.6700222822626)" fill="#df711b"></use><use xlink:href="#bbburst-shape-6" width="47.7691873894216" opacity="0.6704811340990475" transform="matrix(0.9246798121224251,0.38074564351182866,-0.38074564351182866,0.9246798121224251,254.96388971123247,-73.97397838344955)" fill="#ffbd9b"></use><use xlink:href="#bbburst-shape-8" width="45.47653268918733" opacity="0.43370583820475883" transform="matrix(0.9519464174213232,-0.30626462146109484,0.30626462146109484,0.9519464174213232,315.72232158506085,-43.35254920998915)" fill="none" stroke="#ffbd9b"></use></svg>