<svg xmlns="http://www.w3.org/2000/svg" version="1.1" xmlns:xlink="http://www.w3.org/1999/xlink" xmlns:svgjs="http://svgjs.dev/svgjs" viewBox="0 0 800 800"><defs><linearGradient x1="50%" y1="0%" x2="50%" y2="100%" id="ccchaos-grad"><stop stop-color="#db4a2b" stop-opacity="1" offset="0%"></stop><stop stop-color="#d78d7d" stop-opacity="1" offset="100%"></stop></linearGradient></defs><g stroke-width="2" stroke="url(#ccchaos-grad)" fill="none" stroke-linecap="round"><path d="M393.53 104.09C403.25 101.3 413.13 100.36 423.17 101.35 433.24 103.78 443.49 107.92 453.9 113.45 464.37 119.63 475.03 126.42 485.85 133.4 496.73 139.86 507.77 145.85 518.92 151.17 530.08 155.32 541.29 158.69 552.44 161.37 563.48 163.07 574.32 164.47 584.81 165.81 594.96 166.87 604.53 168.4 613.35 170.59 621.52 173.17 628.7 176.75 634.71 181.37 639.84 186.72 643.65 193.14 646.08 200.54 647.63 208.63 647.89 217.54 646.92 227.09 645.51 237.1 643.29 247.54 640.54 258.26 638.15 269.18 635.86 280.23 634.05 291.29 633.53 302.39 634.09 313.43 635.96 324.36 639.69 335.28 644.92 346.07 651.57 356.74 659.8 367.38 668.97 377.91 678.64 388.32 688.68 398.73 698.2 409.03 706.59 419.18 713.73 429.34 718.61 439.1 720.99 448.42 721.27 457.71 718.9 466.5 714.08 474.74 707.45 482.88 698.94 490.39 688.99 497.22 678.3 503.88 667.04 509.81 655.64 514.99 644.68 520.04 634.26 524.39 624.62 528.13 616.14 531.97 608.68 535.42 602.25 538.71 597.08 542.54 592.79 546.63 589.18 551.24 586.51 556.98 584.18 563.69 581.97 571.57 580.2 580.91 578.2 591.53 575.8 603.35 573.42 616.22 570.41 629.74 566.71 643.42 562.8 656.8 558.1 669.2 552.64 679.92 546.9 688.62 540.43 694.6 533.27 697.45 525.89 697.53 517.91 694.53 509.42 688.79 500.77 681.61 491.7 673.23 482.28 664.63 472.78 657.48 463 652.12 452.98 649.37 442.94 650.19 432.71 654.22 422.31 661.2 411.91 670.85 401.6 681.48 391.39 691.88 381.18 701.5 371.06 708.68 361.03 712.66 350.98 713.52 340.99 710.57 331.09 704.11 321.13 694.94 311.23 683.39 301.4 670.37 291.52 656.87 281.7 643.51 271.97 631.03 262.22 620.11 252.59 610.93 243.13 603.63 233.72 598.49 224.54 595.04 215.66 592.94 206.93 592.31 198.59 592.25 190.7 592.32 183.09 592.74 176.01 592.57 169.55 591.51 163.43 590 157.96 587.27 153.18 583.29 148.73 578.56 144.94 572.61 141.81 565.58 138.89 557.9 136.53 549.34 134.68 540.1 132.83 530.46 131.35 520.37 130.18 510 128.79 499.44 127.58 488.76 126.52 478.08 125.07 467.34 123.71 456.69 122.43 446.2 120.76 435.71 119.22 425.39 117.87 415.29 116.29 405.19 115.1 395.53 114.35 386.29 113.64 377.01 113.56 368.11 114.14 359.54 114.99 350.88 116.62 342.46 119.03 334.25 121.83 325.84 125.42 317.52 129.77 309.22 134.46 300.6 139.83 291.88 145.78 282.99 151.93 273.71 158.55 264.2 165.54 254.43 172.52 244.31 179.76 233.99 187.16 223.55 194.39 213.01 201.71 202.59 209.07 192.47 216.17 182.69 223.3 173.58 230.45 165.36 237.32 157.97 244.23 151.77 251.22 146.91 257.97 143.06 264.84 140.53 271.87 139.27 278.71 138.6 285.78 138.75 293.07 139.44 300.25 139.8 307.72 140.03 315.47 139.82 323.16 138.43 331.18 136.19 339.52 133.06 347.82 128.68 356.47 123.69 365.47 118.43 374.45 112.89 383.8 107.95 393.52 104.09" stroke-dasharray="7 10" transform="rotate(0, 400, 400)" opacity="0.85"></path><path d="M399.62 114.8C409.1 112.02 418.76 110.99 428.56 111.8 438.39 113.99 448.39 117.85 458.54 123.08 468.73 129.01 479.07 135.64 489.52 142.57 500 149.12 510.57 155.34 521.16 161.01 531.71 165.62 542.2 169.51 552.53 172.7 562.69 174.89 572.53 176.66 581.92 178.23 590.92 179.34 599.27 180.7 606.81 182.51 613.73 184.51 619.66 187.3 624.45 190.97 628.48 195.22 631.3 200.45 632.89 206.63 633.8 213.44 633.61 221.1 632.44 229.49 631.02 238.37 629.02 247.79 626.69 257.61 624.86 267.72 623.27 278.07 622.22 288.54 622.45 299.14 623.72 309.76 626.2 320.33 630.38 330.94 635.88 341.45 642.61 351.83 650.71 362.22 659.58 372.47 668.83 382.53 678.35 392.61 687.35 402.5 695.27 412.16 702.06 421.83 706.77 431.02 709.2 439.7 709.72 448.36 707.81 456.47 703.62 463.99 697.73 471.45 690.03 478.28 680.89 484.47 670.97 490.59 660.35 496.06 649.44 500.94 638.77 505.82 628.42 510.22 618.65 514.24 609.82 518.52 601.85 522.7 594.76 526.95 588.8 531.89 583.67 537.29 579.23 543.36 575.71 550.53 572.62 558.67 569.76 567.89 567.43 578.3 565.03 589.73 562.41 602 559.93 614.88 557 627.98 553.53 640.82 549.96 652.98 545.74 663.86 540.85 672.86 535.77 679.8 530.01 684.09 523.6 685.46 517.02 684.4 509.83 680.65 502.11 674.62 494.27 667.55 485.95 659.62 477.22 651.74 468.43 645.39 459.29 640.79 449.84 638.63 440.38 639.76 430.65 643.8 420.69 650.49 410.72 659.62 400.78 669.66 390.87 679.55 380.97 688.85 371.1 696.03 361.28 700.37 351.45 701.97 341.66 700.08 331.91 694.89 322.15 687.08 312.43 676.83 302.77 664.9 293.11 652.18 283.51 639.2 274.03 626.65 264.57 615.19 255.25 605.09 246.14 596.56 237.12 589.92 228.36 584.89 219.93 581.25 211.7 579.16 203.87 577.89 196.51 577.07 189.45 576.9 182.92 576.53 177 575.65 168.94 573.71 156.46 564.19 151.99 556.41 149.38 550.33 147.27 543.35 145.63 535.61 143.96 527.46 142.61 518.74 141.54 509.58 140.22 500.21 139.05 490.57 138 480.76 136.56 470.88 135.18 460.93 133.88 451 132.18 441.05 130.6 431.16 129.19 421.36 127.55 411.57 126.27 402.09 125.42 392.91 124.6 383.7 124.36 374.75 124.77 366.03 125.43 357.21 126.85 348.53 129.01 339.96 131.56 331.2 134.88 322.43 138.94 313.62 143.36 304.54 148.45 295.32 154.14 285.92 160.05 276.24 166.46 266.36 173.25 256.31 180.1 246.07 187.23 235.76 194.56 225.5 201.77 215.32 209.1 205.43 216.5 196.01 223.69 187.09 230.91 178.95 238.16 171.79 245.15 165.49 252.18 160.37 259.27 156.53 266.12 153.58 273.07 151.8 280.13 151.1 287.02 150.8 294.07 151.12 301.32 151.78 308.44 151.99 315.81 151.94 323.43 151.38 330.97 149.65 338.81 147.1 346.96 143.73 355.06 139.2 363.49 134.16 372.27 128.92 381.02 123.46 390.13 118.6 399.61 114.81" stroke-dasharray="11 10" transform="rotate(4.04, 400, 400)" opacity="0.72"></path><path d="M405.74 125.52C414.98 122.74 424.37 121.64 433.89 122.27 443.43 124.22 453.11 127.78 462.9 132.7 472.71 138.36 482.62 144.77 492.58 151.59 502.53 158.17 512.5 164.56 522.4 170.51 532.22 175.55 541.88 179.93 551.29 183.64 560.47 186.36 569.25 188.59 577.51 190.5 585.36 191.83 592.52 193.22 598.85 194.86 607 197.6 617.24 207.04 619.2 214.17 619.66 219.76 619.21 226.18 618 233.35 616.72 241 615.06 249.26 613.24 258.01 612.01 267.1 611.11 276.53 610.81 286.18 611.74 296.03 613.65 305.98 616.68 315.95 621.22 326.01 626.92 336.03 633.68 345.94 641.62 355.89 650.17 365.7 658.98 375.31 668 384.94 676.48 394.37 683.95 403.53 690.39 412.69 694.93 421.35 697.38 429.49 698.12 437.61 696.63 445.19 693.02 452.2 687.84 459.19 680.92 465.61 672.6 471.49 663.45 477.36 653.51 482.74 643.16 487.68 632.88 492.76 622.74 497.55 612.98 502.19 603.96 507.21 595.61 512.33 588.01 517.73 581.4 523.86 575.53 530.56 570.32 537.99 566 546.4 562.14 555.7 558.59 565.9 555.63 576.99 552.72 588.78 549.73 601.06 546.99 613.54 543.95 625.86 540.51 637.55 537.08 648.29 533.13 657.54 528.62 664.8 524 670.05 518.78 672.79 512.98 672.86 507.03 670.85 500.52 666.56 493.48 660.39 486.33 653.54 478.7 646.15 470.63 639.01 462.5 633.43 453.98 629.55 445.11 627.94 436.21 629.35 427 633.37 417.51 639.78 408.01 648.4 398.47 657.87 388.93 667.25 379.38 676.2 369.83 683.32 360.29 687.95 350.75 690.18 341.23 689.25 331.74 685.25 322.25 678.76 312.8 669.84 303.42 659.1 294.07 647.32 284.79 634.95 275.65 622.62 266.58 610.94 257.67 600.23 248.99 590.75 240.45 582.86 232.19 576.41 224.29 571.3 216.6 567.7 209.34 565.07 202.56 563.11 193.09 561.53 177.47 558.13 171.4 555.06 166.32 550.78 159.11 537.12 156.72 527.9 155.19 521.15 153.95 513.74 152.94 505.79 151.68 497.63 150.53 489.06 149.48 480.19 148.04 471.23 146.65 462.07 145.31 452.77 143.59 443.45 141.97 434.04 140.52 424.6 138.82 415.15 137.47 405.87 136.52 396.78 135.59 387.65 135.22 378.67 135.46 369.79 135.94 360.84 137.14 351.93 139.06 343.03 141.35 333.98 144.39 324.87 148.14 315.66 152.26 306.26 157.05 296.72 162.44 287.03 168.08 277.17 174.23 267.19 180.79 257.15 187.45 247.07 194.42 237.07 201.62 227.27 208.77 217.7 216.06 208.58 223.45 200.07 230.68 192.14 237.96 185.08 245.28 179.04 252.38 173.82 259.52 169.74 266.7 166.84 273.66 164.68 280.7 163.53 287.84 163.25 294.79 163.2 301.88 163.57 309.13 164.11 316.25 164.09 323.57 163.73 331.11 162.81 338.57 160.74 346.29 157.9 354.29 154.29 362.24 149.65 370.49 144.57 379.06 139.37 387.61 134.01 396.5 129.25 405.73 125.52" stroke-dasharray="9 4" transform="rotate(8.08, 400, 400)" opacity="0.61"></path><path d="M411.44 136.23C420.41 133.48 429.49 132.3 438.67 132.76 447.86 134.47 457.15 137.73 466.49 142.32 475.84 147.67 485.22 153.83 494.59 160.48 503.92 167.03 513.19 173.51 522.3 179.69 531.3 185.09 540.06 189.92 548.49 194.14 556.67 197.41 564.38 200.15 571.52 202.5 581.29 204.98 596.15 209.85 600.92 213.19 603.96 217.46 605.1 230.31 603.73 238.93 602.71 245.35 601.47 252.41 600.21 260.01 599.61 267.96 599.41 276.32 599.82 284.99 601.39 293.88 603.88 302.97 607.37 312.16 612.22 321.48 618.06 330.82 624.79 340.1 632.52 349.44 640.73 358.68 649.11 367.75 657.62 376.85 665.6 385.76 672.63 394.42 678.72 403.08 683.08 411.27 685.54 418.98 686.47 426.67 685.36 433.88 682.29 440.6 677.78 447.32 671.62 453.59 664.09 459.43 655.72 465.34 646.51 470.91 636.77 476.22 626.97 481.75 617.14 487.18 607.52 492.64 598.45 498.55 589.89 504.71 581.93 511.27 574.8 518.53 568.31 526.4 562.44 534.95 557.38 544.32 552.79 554.42 548.56 565.18 544.93 576.52 541.45 588.25 537.99 600.11 534.86 611.84 531.56 623.07 527.99 633.39 524.53 642.58 520.67 650.14 516.36 655.71 509.59 660.06 493.36 654.63 483.89 646.14 477.34 639.62 470.3 632.82 462.83 626.42 455.3 621.6 447.36 618.41 439.04 617.31 430.7 618.95 422.02 622.94 413.01 629.06 404.01 637.2 394.92 646.1 385.77 654.97 376.64 663.55 367.47 670.56 358.28 675.4 349.11 678.16 339.94 678.09 330.79 675.19 321.67 669.97 312.58 662.37 303.57 652.88 294.62 642.18 285.77 630.62 277.06 618.75 268.46 607.17 260.04 596.16 251.88 586.06 243.88 577.19 236.19 569.54 228.87 563.11 221.77 558.08 215.11 554.05 208.93 550.82 200.34 547.63 186.32 542.68 180.95 539.72 176.44 536.13 170.05 525.02 167.92 517.4 166.51 511.81 165.35 505.55 164.39 498.7 163.16 491.66 162.02 484.12 160.96 476.18 159.51 468.14 158.1 459.77 156.73 451.14 154.99 442.48 153.34 433.61 151.84 424.56 150.1 415.5 148.69 406.48 147.66 397.52 146.64 388.54 146.14 379.57 146.22 370.62 146.53 361.62 147.51 352.57 149.19 343.47 151.21 334.27 153.95 324.98 157.4 315.57 161.2 306.06 165.66 296.43 170.72 286.72 176.05 276.95 181.9 267.15 188.18 257.42 194.6 247.79 201.36 238.36 208.38 229.27 215.4 220.55 222.6 212.37 229.93 204.91 237.14 198.07 244.43 192.13 251.78 187.2 258.95 183.03 266.16 179.91 273.42 177.83 280.48 176.33 287.61 175.66 294.81 175.68 301.85 175.74 308.99 176.05 316.26 176.4 323.41 176.09 330.72 175.38 338.22 174.08 345.63 171.68 353.27 168.56 361.14 164.75 368.97 160.02 377.06 154.94 385.44 149.79 393.79 144.54 402.45 139.89 411.43 136.23" stroke-dasharray="1 1" transform="rotate(12.12, 400, 400)" opacity="0.71"></path><path d="M416.27 146.94C424.94 144.22 433.69 142.97 442.48 143.27 451.27 144.74 460.1 147.69 468.92 151.94 477.74 156.96 486.52 162.83 495.22 169.26 503.86 175.71 512.35 182.21 520.63 188.53 528.76 194.22 536.6 199.45 544.03 204.13 551.22 207.94 557.9 211.23 563.99 214.08 578.27 219.8 590.26 228.89 591.01 233.54 590.85 239.26 588.72 254.55 587.68 263.96 587.71 270.74 588.17 277.98 589.24 285.59 591.4 293.43 594.39 301.54 598.27 309.83 603.34 318.26 609.26 326.79 615.91 335.34 623.41 343.95 631.27 352.53 639.2 361.01 647.22 369.51 654.71 377.87 661.3 386.05 667.06 394.23 671.24 402.02 673.69 409.4 674.78 416.77 674.01 423.76 671.44 430.37 667.56 437.01 662.12 443.33 655.36 449.36 647.77 455.51 639.29 461.47 630.22 467.34 620.97 473.47 611.55 479.66 602.2 486.02 593.22 492.82 584.59 499.98 576.42 507.57 568.92 515.78 561.96 524.55 555.54 533.91 549.84 543.86 544.6 554.35 539.73 565.25 535.44 576.42 531.36 587.68 527.4 598.75 523.79 609.42 520.13 619.34 516.32 628.14 510.71 638.67 497.93 647.93 490.52 646.09 485.41 642.79 479.83 637.93 473.8 631.93 467.72 625.83 461.19 619.65 454.23 614 447.22 609.91 439.82 607.36 432.03 606.72 424.21 608.57 416.05 612.52 407.54 618.35 399.04 626 390.42 634.36 381.72 642.71 373.05 650.9 364.31 657.76 355.54 662.74 346.8 665.94 338.06 666.61 329.33 664.72 320.65 660.7 312.02 654.38 303.48 646.17 295 636.64 286.65 626.05 278.47 614.88 270.41 603.66 262.56 592.67 254.98 582.25 247.58 572.74 240.49 564.18 233.79 556.65 227.32 550.34 221.27 544.99 215.7 540.49 207.99 535.49 195.52 528.12 190.79 524.67 186.81 521.13 181.15 511.36 179.22 504.84 177.91 500.12 176.8 494.76 175.87 488.81 174.65 482.71 173.51 476.08 172.42 468.97 170.97 461.78 169.53 454.17 168.13 446.2 166.38 438.2 164.7 429.87 163.16 421.25 161.39 412.63 159.93 403.93 158.83 395.17 157.72 386.41 157.12 377.57 157.05 368.67 157.18 359.74 157.96 350.71 159.39 341.6 161.15 332.43 163.6 323.16 166.72 313.81 170.19 304.43 174.31 294.98 179.01 285.53 184 276.13 189.52 266.8 195.48 257.65 201.61 248.71 208.1 240.09 214.88 231.93 221.71 224.2 228.75 217.1 235.95 210.76 243.08 205.04 250.32 200.2 257.64 196.33 264.82 193.11 272.07 190.82 279.35 189.43 286.49 188.44 293.68 188.1 300.93 188.28 308.03 188.33 315.22 188.5 322.51 188.57 329.69 187.94 337 186.85 344.46 185.18 351.84 182.47 359.4 179.09 367.16 175.11 374.88 170.32 382.82 165.25 391 160.17 399.16 155.05 407.58 150.53 416.26 146.95" stroke-dasharray="5 10" transform="rotate(16.16, 400, 400)" opacity="0.38"></path><path d="M419.88 157.66C428.23 154.97 436.59 153.66 444.94 153.81 453.28 155.04 461.6 157.68 469.86 161.58 478.09 166.25 486.22 171.8 494.2 177.96 502.11 184.24 509.81 190.68 517.22 197.07 524.5 202.96 531.42 208.51 537.9 213.6 547.01 219.83 561.9 228.96 567.42 232.36 574.02 238.06 576.84 249.66 576.17 255.45 575.83 262.19 576.85 278.8 579.08 288.45 581.75 295.22 585.17 302.32 589.36 309.67 594.59 317.15 600.52 324.8 607.05 332.56 614.28 340.39 621.77 348.26 629.26 356.11 636.79 363.98 643.8 371.81 649.98 379.54 655.41 387.27 659.4 394.71 661.83 401.86 663.05 409.01 662.58 415.9 660.48 422.53 657.18 429.22 652.42 435.72 646.4 442.08 639.58 448.58 631.85 455.04 623.47 461.53 614.83 468.3 605.91 475.23 596.93 482.41 588.17 490 579.61 497.97 571.37 506.36 563.67 515.23 556.38 524.56 549.55 534.34 543.34 544.48 537.53 554.94 532.1 565.56 527.2 576.18 522.55 586.62 518.07 596.61 513.96 606 509.87 614.45 505.73 621.67 499.75 629.82 486.81 635.09 479.6 632.07 474.68 628.41 469.37 623.52 463.67 617.78 457.94 612.17 451.81 606.66 445.29 601.75 438.74 598.36 431.8 596.41 424.5 596.19 417.18 598.21 409.5 602.09 401.5 607.63 393.5 614.82 385.37 622.64 377.17 630.49 368.97 638.27 360.72 644.92 352.43 649.97 344.18 653.52 335.93 654.83 327.7 653.84 319.53 650.93 311.42 645.85 303.41 638.91 295.49 630.61 287.71 621.1 280.12 610.81 272.65 600.21 265.42 589.53 258.47 579.11 251.7 569.27 245.25 560.11 239.19 551.77 233.35 544.41 227.92 537.92 222.95 532.23 216.08 525.41 205.09 515.1 200.94 510.73 197.43 506.69 192.38 497.12 190.61 491.18 188.83 484.61 185.57 468.59 183.88 459.22 182.4 452.74 180.94 445.81 179.51 438.44 177.74 431.06 176.05 423.28 174.48 415.12 172.7 406.97 171.2 398.65 170.03 390.19 168.86 381.74 168.15 373.16 167.95 364.46 167.92 355.75 168.5 346.93 169.7 338.01 171.19 329.09 173.35 320.09 176.14 311.05 179.27 302.05 183.02 293.05 187.36 284.13 191.98 275.35 197.12 266.74 202.72 258.4 208.51 250.35 214.69 242.72 221.18 235.61 227.75 228.97 234.57 222.99 241.57 217.79 248.55 213.15 255.67 209.36 262.89 206.44 270.03 204.03 277.23 202.42 284.5 201.56 291.64 200.92 298.85 200.78 306.1 200.97 313.24 200.92 320.45 200.85 327.73 200.6 334.92 199.6 342.21 198.13 349.62 196.09 356.96 193.08 364.44 189.48 372.08 185.36 379.67 180.53 387.45 175.5 395.41 170.53 403.36 165.54 411.51 161.15 419.86 157.66" stroke-dasharray="3 9" transform="rotate(20.200000000000003, 400, 400)" opacity="0.16"></path><path d="M421.99 168.37C429.98 165.72 437.93 164.37 445.8 164.36 453.66 165.37 461.44 167.71 469.09 171.24 476.71 175.55 484.17 180.74 491.42 186.58 498.59 192.64 505.5 198.95 512.08 205.31 518.52 211.32 524.58 217.1 530.18 222.52 538.01 229.44 550.52 240.16 555.04 244.24 560.46 250.55 563.21 261.2 563.09 266.07 563.49 271.64 566.26 285.53 569.31 293.74 572.42 299.51 576.19 305.65 580.62 312.1 585.93 318.65 591.83 325.45 598.19 332.42 605.13 339.45 612.24 346.62 619.29 353.86 626.34 361.12 632.89 368.42 638.66 375.74 643.76 383.06 647.56 390.21 649.95 397.2 651.28 404.19 651.08 411.05 649.39 417.79 646.63 424.59 642.52 431.33 637.21 438.05 631.13 444.92 624.16 451.86 616.5 458.93 608.51 466.25 600.15 473.8 591.63 481.63 583.2 489.78 574.85 498.29 566.69 507.15 558.92 516.33 551.46 525.85 544.37 535.64 537.78 545.58 531.54 555.61 525.64 565.57 520.22 575.31 515.05 584.66 510.08 593.35 505.48 601.32 500.96 608.24 496.46 613.88 490.01 619.79 476.62 621.64 469.44 617.75 464.6 613.91 459.45 609.13 453.98 603.77 448.5 598.7 442.68 593.86 436.51 589.68 430.33 586.94 423.8 585.54 416.94 585.7 410.06 587.86 402.86 591.66 395.35 596.92 387.84 603.65 380.21 610.95 372.51 618.29 364.83 625.65 357.09 632.07 349.33 637.12 341.61 640.92 333.89 642.77 326.22 642.58 318.61 640.67 311.08 636.76 303.67 631.05 296.35 624.01 289.18 615.66 282.22 606.39 275.39 596.6 268.8 586.48 262.5 576.36 256.38 566.51 250.58 557.09 245.16 548.23 239.93 540.13 235.11 532.73 230.72 526.05 224.66 517.56 215.01 504.16 211.38 498.58 208.27 493.64 203.73 483.32 202.07 477.48 200.34 471.26 197.05 456.5 195.31 447.9 193.81 441.98 192.33 435.59 190.87 428.76 189.1 421.92 187.39 414.65 185.8 406.98 184.01 399.31 182.48 391.42 181.27 383.37 180.03 375.32 179.24 367.12 178.91 358.78 178.74 350.46 179.13 342.03 180.1 333.53 181.34 325.06 183.21 316.56 185.67 308.07 188.46 299.67 191.84 291.36 195.78 283.2 200.01 275.24 204.76 267.53 209.96 260.18 215.38 253.15 221.19 246.6 227.33 240.62 233.59 235.08 240.11 230.21 246.85 226.08 253.61 222.44 260.54 219.56 267.58 217.44 274.59 215.7 281.69 214.61 288.86 214.1 295.95 213.67 303.1 213.57 310.3 213.66 317.41 213.41 324.59 213.03 331.82 212.41 338.98 211.03 346.22 209.18 353.54 206.8 360.8 203.53 368.18 199.73 375.66 195.51 383.12 190.67 390.7 185.71 398.42 180.85 406.13 176.02 413.99 171.77 421.98 168.38" stroke-dasharray="4 5" transform="rotate(24.24, 400, 400)" opacity="0.59"></path><path d="M422.45 179.09C430.05 176.48 437.55 175.09 444.92 174.94 452.28 175.73 459.49 177.77 466.53 180.94 473.53 184.86 480.32 189.67 486.85 195.16 493.31 200.93 499.46 207.04 505.26 213.29 510.94 219.33 516.22 225.24 521.04 230.9 527.77 238.4 538.35 250.62 542.13 255.47 548.45 268.16 551.74 282.59 553.29 288.19 556.16 294.38 565.42 308.98 572.03 317.27 577.37 322.98 583.18 328.99 589.34 335.24 595.96 341.54 602.68 348.04 609.29 354.71 615.87 361.4 621.96 368.22 627.34 375.17 632.12 382.11 635.73 389.01 638.07 395.87 639.47 402.74 639.51 409.59 638.2 416.43 635.93 423.34 632.41 430.3 627.79 437.34 622.43 444.5 616.19 451.82 609.25 459.32 601.95 467.01 594.22 474.95 586.23 483.16 578.23 491.59 570.2 500.31 562.25 509.27 554.56 518.41 547.08 527.73 539.86 537.13 533.04 546.51 526.51 555.78 520.27 564.77 514.44 573.39 508.84 581.45 503.45 588.72 498.41 595.21 493.48 600.62 488.61 604.76 481.66 608.64 467.67 607.68 460.4 603.22 455.56 599.36 450.48 594.81 445.14 589.9 439.83 585.42 434.23 581.26 428.35 577.78 422.47 575.67 416.29 574.76 409.82 575.26 403.34 577.53 396.58 581.23 389.55 586.21 382.51 592.49 375.39 599.28 368.2 606.12 361.04 613.05 353.83 619.2 346.63 624.19 339.46 628.16 332.32 630.45 325.24 630.94 318.22 629.93 311.3 627.09 304.51 622.56 297.82 616.75 291.29 609.62 284.99 601.45 278.8 592.64 272.87 583.3 267.23 573.72 261.74 564.18 256.58 554.8 251.78 545.76 247.15 537.23 242.9 529.22 239.05 521.79 235.37 515.03 232.09 508.82 229.22 503.11 225.28 495.63 219.33 482.68 217.18 476.68 215.17 470.93 211.88 458.53 210.38 451.58 208.51 444.29 204.44 427.65 202.21 418.29 200.43 411.9 198.72 405.1 197.12 397.91 195.33 390.72 193.79 383.32 192.54 375.74 191.26 368.18 190.39 360.47 189.96 352.65 189.65 344.86 189.87 336.99 190.62 329.09 191.62 321.25 193.2 313.43 195.35 305.69 197.78 298.09 200.79 290.63 204.34 283.4 208.16 276.39 212.49 269.71 217.27 263.43 222.27 257.47 227.67 252.02 233.42 247.14 239.31 242.66 245.48 238.82 251.88 235.65 258.36 232.87 265.01 230.74 271.81 229.25 278.61 228 285.52 227.25 292.51 226.93 299.46 226.56 306.48 226.37 313.56 226.26 320.58 225.72 327.65 224.99 334.77 223.97 341.84 222.21 348.97 220 356.16 217.29 363.3 213.79 370.52 209.85 377.81 205.55 385.09 200.74 392.44 195.87 399.88 191.14 407.32 186.47 414.84 182.38 422.44 179.09" stroke-dasharray="10 3" transform="rotate(28.28, 400, 400)" opacity="0.87"></path><path d="M421.22 189.8C428.41 187.26 435.43 185.82 442.29 185.55 449.13 186.13 455.79 187.87 462.22 190.69 468.61 194.22 474.76 198.62 480.62 203.72 486.41 209.15 491.88 214.99 496.98 221.06 501.98 227.02 506.58 232.96 510.75 238.76 516.57 246.69 525.68 260.24 528.95 265.86 533.41 274.51 537.52 286.05 538.72 290.19 540.63 294.52 546.52 304.93 550.9 311.08 554.66 315.35 558.89 319.98 563.57 324.96 568.88 329.99 574.55 335.33 580.47 340.97 586.76 346.63 593.08 352.55 599.25 358.72 605.37 364.89 611.03 371.28 616.02 377.89 620.49 384.5 623.9 391.17 626.17 397.89 627.64 404.63 627.87 411.44 626.9 418.34 625.07 425.3 622.11 432.38 618.12 439.6 613.45 446.92 607.93 454.42 601.72 462.13 595.12 469.96 588.04 478.02 580.65 486.29 573.16 494.68 565.55 503.25 557.92 511.96 550.45 520.7 543.09 529.46 535.89 538.15 529 546.66 522.31 554.9 515.87 562.71 509.75 570.05 503.85 576.72 498.13 582.53 490.08 589.56 474.84 596.46 467.44 596.07 462.64 594.6 457.77 592.05 452.78 588.58 447.87 584.84 442.8 580.64 437.55 576.24 432.33 572.37 426.9 568.88 421.24 566.07 415.6 564.52 409.71 564.07 403.59 564.86 397.47 567.21 391.11 570.8 384.53 575.49 377.95 581.35 371.3 587.64 364.64 593.99 357.98 600.48 351.32 606.33 344.68 611.2 338.08 615.27 331.52 617.9 325.05 618.95 318.64 618.73 312.33 616.86 306.19 613.43 300.12 608.8 294.24 602.88 288.59 595.87 283.04 588.15 277.75 579.75 272.75 570.93 267.87 561.95 263.32 552.91 259.1 544 255.02 535.37 251.3 527.08 247.95 519.2 244.72 511.81 241.85 504.89 239.35 498.41 235.88 489.64 230.57 474.3 228.59 467.32 226.69 460.77 223.41 447.45 221.86 440.39 219.95 433.14 215.79 417.11 213.53 408.25 211.75 402.22 210.04 395.84 208.45 389.12 206.66 382.39 205.11 375.5 203.84 368.46 202.53 361.45 201.6 354.32 201.07 347.13 200.64 339.97 200.7 332.79 201.26 325.63 202.02 318.56 203.33 311.56 205.16 304.7 207.26 297.99 209.9 291.49 213.05 285.27 216.46 279.28 220.35 273.64 224.69 268.44 229.25 263.53 234.21 259.12 239.52 255.26 244.99 251.73 250.75 248.77 256.77 246.4 262.87 244.3 269.19 242.74 275.66 241.7 282.17 240.75 288.81 240.18 295.54 239.89 302.28 239.43 309.09 239.05 315.96 238.65 322.8 237.77 329.7 236.66 336.64 235.23 343.55 233.1 350.5 230.55 357.49 227.56 364.45 223.87 371.47 219.82 378.51 215.49 385.55 210.74 392.64 205.98 399.76 201.4 406.87 196.91 414.03 192.98 421.21 189.8" stroke-dasharray="7 6" transform="rotate(32.32, 400, 400)" opacity="0.96"></path><path d="M418.4 200.51C425.14 198.03 431.69 196.58 438.03 196.18 444.36 196.57 450.46 198.02 456.32 200.48 462.14 203.62 467.69 207.6 472.94 212.29 478.13 217.34 482.99 222.84 487.5 228.64 491.92 234.44 495.96 240.31 499.61 246.14 504.73 254.34 512.8 268.96 515.79 275.28 520.34 285.36 525.66 298.36 527.54 302.61 530.15 306.87 537.35 316.59 542.21 322.18 546.18 326.02 550.52 330.19 555.22 334.68 560.45 339.19 565.93 344.03 571.58 349.17 577.53 354.32 583.44 359.77 589.18 365.5 594.85 371.24 600.08 377.26 604.7 383.56 608.86 389.85 612.07 396.28 614.27 402.84 615.77 409.41 616.17 416.12 615.5 422.97 614.07 429.86 611.62 436.92 608.22 444.14 604.2 451.42 599.38 458.89 593.87 466.53 587.98 474.24 581.58 482.12 574.82 490.12 567.91 498.16 560.8 506.27 553.6 514.39 546.46 522.43 539.34 530.35 532.31 538.06 525.48 545.49 518.79 552.53 512.27 559.04 506.02 565.03 499.93 570.29 494.01 574.7 485.57 579.72 469.57 583.36 461.85 581.93 456.85 580.05 451.83 577.33 446.75 573.92 441.76 570.42 436.67 566.64 431.47 562.81 423.65 558.13 407.25 553.49 398.62 554.5 392.82 556.9 386.83 560.37 380.67 564.78 374.51 570.21 368.34 576.02 362.17 581.9 356.02 587.94 349.89 593.46 343.81 598.17 337.76 602.26 331.78 605.12 325.91 606.64 320.09 607.08 314.41 606.06 308.89 603.64 303.44 600.13 298.18 595.37 293.16 589.54 288.22 582.96 283.53 575.61 279.13 567.72 274.83 559.51 270.83 551.08 267.15 542.57 263.57 534.16 260.31 525.9 257.39 517.88 254.56 510.19 252.04 502.84 249.86 495.84 247.7 489.24 245.84 482.97 244.26 477.01 241.95 468.71 238.24 453.37 236.68 446.01 234.93 438.86 231.34 424.1 229.43 416.3 227.87 411.05 226.33 405.56 224.82 399.81 223.06 394.06 221.36 388.05 219.77 381.77 218 375.49 216.46 369.11 215.17 362.65 213.85 356.2 212.87 349.71 212.25 343.21 211.73 336.76 211.64 330.33 212.01 324 212.56 317.74 213.61 311.63 215.15 305.71 218.06 297.17 226.67 281.88 232.29 275.37 238.63 269.67 253.38 261.06 261.61 258.17 267.3 256.57 273.2 255.38 279.29 254.59 285.43 253.78 291.72 253.21 298.12 252.81 304.55 252.16 311.07 251.5 317.65 250.74 324.24 249.49 330.88 247.98 337.55 246.16 344.22 243.69 350.93 240.83 357.65 237.6 364.37 233.77 371.11 229.64 377.86 225.32 384.61 220.66 391.37 216.04 398.13 211.64 404.89 207.34 411.65 203.57 418.39 200.52" stroke-dasharray="2 1" transform="rotate(36.36, 400, 400)" opacity="0.63"></path><path d="M414.2 211.23C423.51 208.09 441.01 207.64 449.12 210.35 459.69 216.42 469.09 225.35 477.17 236.1 485.03 247.18 491.49 258.51 496.51 269.41 501.41 278.92 505.12 287.57 507.83 295.45 511.07 301.91 514.01 308.14 517.08 314.51 521.68 320.19 527.18 326.6 533.83 333.95 542.48 341.14 552.26 349.51 562.67 359.09 568.25 363.87 573.76 368.95 579.07 374.34 584.3 379.72 589.12 385.41 593.38 391.4 597.23 397.4 600.25 403.57 602.36 409.9 603.87 416.24 604.42 422.75 604 429.42 601.22 442.83 594.89 456.94 585.69 471.54 574.96 486.19 562.51 501.12 549.16 515.79 535.79 529.81 522.37 542.69 509.32 553.5 497.01 562.31 485.18 567.98 473.86 569.91 463.22 569.43 452.78 565.65 442.41 559.34 432.37 553.25 422.06 547.34 411.42 543.18 403.43 542.79 386.85 548.27 378.27 554.07 372.51 559.09 366.77 564.43 361.08 569.84 355.4 575.44 349.78 580.61 344.24 585.12 333.22 592.53 322.64 595.34 312.73 593.2 303.05 587.27 294.2 577.07 286.39 563.85 278.89 549.01 272.51 533.17 267.35 517.4 262.36 502.27 258.47 488.06 255.61 474.96 252.5 462.97 250.09 451.75 248.21 441.01 245.54 430.87 243.06 420.64 240.72 410.08 238.38 402.15 233.5 385.56 231.09 376.85 229.35 370.98 227.83 365.09 226.54 359.21 225.21 353.33 224.19 347.49 223.51 341.7 222.39 330.24 222.98 319.25 225.31 309.11 228.46 299.46 233.46 291.03 240.11 284.18 247.58 278.01 256.49 273.52 266.54 270.71 277.08 268.09 288.47 266.52 300.41 265.53 312.54 263.31 325.04 260.53 337.71 256.72 350.42 250.61 363.25 243.24 376.04 235.05 382.44 230.52 388.84 226.07 395.2 221.84 401.57 217.75 407.91 214.16 414.19 211.23" stroke-dasharray="8 6" transform="rotate(40.400000000000006, 400, 400)" opacity="0.22"></path><path d="M408.93 221.94C420.56 217.85 431.29 217.32 440.99 220.28 450.61 225.55 459.11 233.57 466.4 243.48 473.55 253.98 479.49 265.03 484.23 275.97 489.02 285.93 492.87 295.26 496.03 303.91 499.8 311.3 503.45 318.35 507.34 325.33 512.62 331.55 518.71 338.21 525.72 345.56 534.39 352.62 543.88 360.66 553.74 369.77 564.22 378.8 573.97 388.99 582.05 400.39 588.76 411.79 592.26 423.91 592.41 436.59 590.35 449.31 585.08 462.57 577.17 476.1 567.79 489.48 556.67 502.8 544.49 515.48 532.09 527.34 519.38 537.76 506.79 545.99 494.69 552.41 482.91 555.94 471.54 556.23 460.72 554.78 450.14 550.75 439.72 544.91 429.61 539.74 419.4 535.02 409.07 532.01 398.82 532.74 388.27 536.57 377.5 543.35 366.72 553.22 356.21 563.33 346.12 572.05 336.09 579.39 326.58 582.89 317.79 582.14 309.15 578.13 301.34 570.14 294.51 559.12 287.89 546.28 282.28 531.99 277.75 517.24 273.28 502.58 269.73 488.38 267.07 474.97 264.08 462.34 261.67 450.42 259.71 439.1 256.97 428.31 254.4 417.7 251.97 407.11 248.58 396.67 245.33 385.96 242.41 375 238.9 364.04 236.32 353.33 234.85 343.09 233.57 332.96 233.83 323.52 235.67 315.06 238.21 306.96 242.44 300.09 248.22 294.67 254.74 289.65 262.65 286.03 271.68 283.72 281.21 281.25 291.62 279.45 302.62 277.88 313.86 274.98 325.52 271.42 337.36 266.89 349.3 260.34 361.35 252.79 373.34 244.69 385.36 235.84 397.28 227.9 408.92 221.94" stroke-dasharray="7 7" transform="rotate(44.44, 400, 400)" opacity="0.61"></path><path d="M402.98 232.65C413.69 228.68 423.51 227.91 432.36 230.29 441.15 234.77 448.92 241.86 455.61 250.86 462.24 260.61 467.86 271.17 472.52 281.9 477.33 292.02 481.46 301.76 485.12 310.98 489.42 319.16 493.74 326.98 498.33 334.61 504.15 341.5 510.64 348.6 517.86 356.14 526.4 363.35 535.51 371.3 544.76 380.11 554.44 388.82 563.36 398.54 570.73 409.32 576.93 420.11 580.3 431.49 580.74 443.27 579.3 455.05 575.01 467.14 568.29 479.22 560.23 491.04 550.43 502.46 539.5 512.97 528.19 522.6 516.38 530.64 504.49 536.53 492.85 540.9 481.37 542.72 470.2 541.86 459.43 539.84 448.88 535.9 438.56 530.74 428.49 526.55 418.46 522.98 408.46 521.02 398.53 522.35 388.5 526.28 378.42 532.64 368.33 541.66 358.66 550.87 349.5 558.97 340.37 566.13 331.84 570.11 324.03 570.48 316.32 568.16 309.41 562.22 303.42 553.36 297.53 542.65 292.55 530.2 288.51 516.89 284.43 503.26 281.13 489.64 278.58 476.47 275.65 463.73 273.2 451.55 271.13 439.99 268.32 428.82 265.67 418.01 263.17 407.48 259.8 397.08 256.6 386.73 253.73 376.48 250.33 366.22 247.78 356.51 246.25 347.5 244.85 338.56 244.83 330.46 246.23 323.39 248.2 316.55 251.72 310.87 256.66 306.46 262.25 302.2 269.16 299.05 277.14 296.85 285.62 294.23 294.97 291.97 304.94 289.71 315.19 286.09 325.88 281.81 336.8 276.65 347.84 269.79 359.01 262.17 370.1 254.24 381.25 245.79 392.27 238.29 402.98 232.65" stroke-dasharray="6 8" transform="rotate(48.48, 400, 400)" opacity="0.96"></path><path d="M396.81 243.37C406.61 239.53 415.59 238.55 423.69 240.4 431.76 244.11 438.93 250.26 445.2 258.28 451.47 267.16 456.92 277.02 461.63 287.3 466.57 297.29 471.03 307.15 475.19 316.67 479.98 325.43 484.86 333.86 490.01 342.04 496.2 349.58 502.94 357.18 510.2 364.99 518.5 372.48 527.13 380.47 535.74 389.08 544.62 397.59 552.72 406.89 559.41 417.02 565.1 427.14 568.32 437.65 568.99 448.34 568.08 458.98 564.66 469.67 559.05 480.08 552.23 490.17 543.75 499.61 534.1 507.94 523.97 515.45 513.21 521.36 502.19 525.27 491.25 528 480.31 528.57 469.56 527 459.08 524.8 448.77 521.22 438.7 516.9 428.83 513.71 419.07 511.23 409.45 510.21 399.9 512.03 390.38 515.99 380.96 521.92 371.53 530.12 362.63 538.47 354.31 545.91 345.99 552.76 338.31 557.02 331.36 558.28 324.44 557.37 318.3 553.27 312.99 546.45 307.7 537.89 303.21 527.45 299.53 515.86 295.73 503.68 292.6 491.14 290.09 478.71 287.17 466.41 284.65 454.48 282.46 443.06 279.59 431.9 276.86 421.14 274.31 410.82 270.99 400.61 267.85 390.67 265.05 381.08 261.77 371.49 259.29 362.66 257.73 354.67 256.24 346.72 255.99 339.69 257 333.68 258.46 327.76 261.32 322.89 265.46 319.07 270.17 315.19 276.09 312.14 283.04 309.74 290.44 306.75 298.71 303.9 307.6 300.88 316.78 296.58 326.43 291.65 336.33 286 346.37 278.95 356.57 271.38 366.72 263.7 376.92 255.71 387.02 248.67 396.81 243.37" stroke-dasharray="9 10" transform="rotate(52.52, 400, 400)" opacity="0.98"></path><path d="M390.89 254.08C399.8 250.4 408.01 249.25 415.47 250.6 422.91 253.58 429.61 258.8 435.57 265.8 441.58 273.72 446.97 282.72 451.81 292.32 456.91 301.9 461.69 311.58 466.3 321.1 471.49 330.11 476.8 338.9 482.34 347.45 488.75 355.49 495.55 363.49 502.71 371.54 510.65 379.31 518.74 387.37 526.66 395.8 534.75 404.15 542.06 413.03 548.09 422.45 553.28 431.87 556.33 441.4 557.17 450.87 556.71 460.28 554.06 469.46 549.46 478.14 543.79 486.49 536.57 494.01 528.2 500.35 519.31 506 509.69 510.12 499.69 512.48 489.63 514.01 479.44 513.79 469.32 511.93 459.35 509.86 449.49 506.85 439.84 503.45 430.33 501.25 420.97 499.78 411.8 499.57 402.7 501.77 393.71 505.71 384.93 511.21 376.14 518.61 367.94 526.11 360.36 532.88 352.78 539.33 345.84 543.69 339.6 545.6 333.36 545.81 327.83 543.3 323.05 538.34 318.23 531.81 314.11 523.42 310.69 513.72 307.08 503.28 304.04 492.2 301.51 480.93 298.58 469.57 295.98 458.33 293.67 447.47 290.74 436.71 287.97 426.33 285.38 416.42 282.13 406.59 279.08 397.15 276.38 388.2 273.24 379.25 270.84 371.17 269.28 364 267.52 353.69 270.12 337.71 274.67 331.9 278.54 328.09 283.53 324.86 289.48 322.03 295.82 318.54 302.99 315.03 310.79 311.28 318.86 306.38 327.41 300.94 336.26 294.94 345.25 287.84 354.42 280.42 363.59 273.09 372.81 265.59 381.97 259.04 390.89 254.08" stroke-dasharray="9 5" transform="rotate(56.56, 400, 400)" opacity="0.33"></path><path d="M385.64 264.8C393.71 261.29 401.21 260 408.09 260.9 414.98 263.2 421.29 267.52 427.03 273.5 432.86 280.38 438.23 288.4 443.21 297.12 448.45 306.04 453.5 315.23 458.45 324.44 463.92 333.39 469.5 342.22 475.27 350.87 481.71 359.16 488.43 367.37 495.34 375.52 502.82 383.44 510.32 391.49 517.54 399.69 524.83 407.81 531.38 416.22 536.77 424.89 541.47 433.55 544.32 442.07 545.28 450.29 545.2 458.43 543.2 466.13 539.51 473.15 534.91 479.89 528.88 485.71 521.74 490.35 514.1 494.48 505.68 497.24 496.79 498.51 487.76 499.28 478.48 498.69 469.16 496.89 459.9 495.19 450.67 492.9 441.61 490.46 432.63 489.19 423.79 488.62 415.17 489.09 406.59 491.59 398.19 495.44 390.03 500.5 381.88 507.13 374.33 513.81 367.41 519.89 360.48 525.85 354.17 530.15 348.52 532.48 340.32 532.94 327.05 521.11 321.85 510.11 318.38 501.55 315.37 492.17 312.79 482.37 309.83 472.31 307.15 462.17 304.74 452.2 301.78 442.24 298.99 432.54 296.39 423.27 293.23 414.03 290.29 405.2 287.7 396.88 284.73 388.57 282.44 381.13 280.9 374.58 279.05 365.12 280.67 350.17 284.29 344.35 287.41 340.37 291.53 336.78 296.53 333.41 301.87 329.37 307.98 325.22 314.7 320.82 321.66 315.46 329.12 309.66 336.89 303.48 344.8 296.47 352.93 289.32 361.11 282.4 369.35 275.44 377.57 269.39 385.64 264.8" stroke-dasharray="5 7" transform="rotate(60.599999999999994, 400, 400)" opacity="0.95"></path><path d="M381.48 275.51C388.73 272.21 395.57 270.82 401.94 271.31 408.33 273 414.3 276.46 419.85 281.43 425.5 287.24 430.84 294.18 435.92 301.9 441.24 309.93 446.46 318.38 451.63 326.99 457.22 335.53 462.92 344.08 468.72 352.51 475.04 360.74 481.53 368.88 488.07 376.91 495.01 384.79 501.85 392.66 508.35 400.5 514.86 408.3 520.67 416.16 525.45 424.03 529.67 431.9 532.31 439.39 533.34 446.4 533.54 453.34 532.12 459.68 529.22 465.25 525.57 470.61 520.64 475.03 514.68 478.36 508.26 481.36 501.05 483.19 493.32 483.82 485.4 484.22 477.16 483.6 468.78 482.14 460.39 480.98 451.95 479.47 443.62 477.97 435.32 477.56 427.13 477.75 419.14 478.78 411.19 481.46 403.41 485.18 395.89 489.78 388.37 495.68 381.43 501.56 375.11 506.95 365.88 514.42 350.29 520.57 343.9 518.46 339.73 515.41 336.06 510.74 332.88 504.79 329.49 498.11 326.49 490.51 323.85 482.33 320.87 473.83 318.13 465.05 315.64 456.26 312.69 447.39 309.91 438.65 307.34 430.2 304.29 421.76 301.48 413.65 299.02 405.98 296.23 398.32 294.07 391.45 292.58 385.34 290.71 376.48 291.52 361.91 294.34 355.81 296.79 351.55 300.13 347.51 304.26 343.58 308.65 339.04 313.77 334.37 319.47 329.47 325.36 323.81 331.75 317.84 338.48 311.64 345.32 304.86 352.42 298.09 359.64 291.64 366.9 285.26 374.22 279.74 381.48 275.51" stroke-dasharray="10 7" transform="rotate(64.64, 400, 400)" opacity="0.69"></path><path d="M378.7 286.22C385.19 283.14 391.39 281.69 397.28 281.85 403.19 282.97 408.82 285.64 414.18 289.64 419.62 294.4 424.89 300.22 429.98 306.83 435.28 313.81 440.54 321.31 445.77 329.07 451.32 336.9 456.94 344.85 462.62 352.75 468.67 360.59 474.78 368.37 480.84 376.01 487.17 383.58 493.33 391.06 499.1 398.39 504.84 405.71 509.94 412.93 514.13 419.97 517.88 427 520.29 433.52 521.35 439.43 521.29 447.88 513.83 460.81 507 464.93 501.72 467.18 495.69 468.48 489.13 468.86 482.37 469.21 475.22 468.84 467.87 467.9 460.47 467.36 452.95 466.65 445.46 466.01 437.98 466.34 430.55 467.16 423.27 468.62 416.02 471.39 408.92 474.92 402.05 479.07 395.18 484.25 388.85 489.37 383.07 494.07 374.62 500.79 360.24 507.53 354.24 506.83 348.52 503.51 338.82 489.75 334.64 480.3 331.65 473.44 328.89 466.16 326.36 458.7 323.45 451.13 320.71 443.52 318.2 436.05 315.31 428.56 312.66 421.27 310.34 414.29 307.75 407.31 305.74 400.95 304.33 395.21 302.49 386.8 302.68 372.27 304.82 365.77 306.7 361.22 309.35 356.77 312.7 352.36 316.25 347.46 320.45 342.42 325.2 337.22 330.1 331.45 335.48 325.49 341.21 319.45 347.04 313.03 353.15 306.74 359.44 300.83 365.76 295.05 372.21 290.07 378.7 286.22" stroke-dasharray="6 10" transform="rotate(68.68, 400, 400)" opacity="0.79"></path><path d="M377.53 296.94C389.03 292 399.95 292.67 410.08 298.19 420.53 306.28 430.76 317.81 440.75 331.06 451.68 344.92 462.84 359.38 473.63 373.38 485.04 387.33 495.3 400.85 502.81 413.25 508.96 425.64 510.47 435.6 507.68 442.72 503.04 449.55 494.76 453.31 484.12 454.13 472.7 455.37 459.86 455.11 446.75 454.62 433.59 457.33 420.44 461.92 408.06 468.36 395.67 477.98 385.07 486.21 376.35 491.35 367.38 495.13 359.93 494.04 354 488.61 347.32 481.29 341.6 470.83 336.88 458.8 330.93 446.27 325.68 433.22 321.66 420.69 316.76 408.16 314.13 397.27 313.87 387.89 313.84 377.98 316.61 368.69 321.85 359.65 327.62 349.12 335.65 338.05 345.22 326.95 355.04 314.98 366.03 304.31 377.53 296.94" stroke-dasharray="5 6" transform="rotate(72.72, 400, 400)" opacity="0.38"></path><path d="M378.04 307.65C388.11 303.08 398.02 303.09 407.51 307.13 417.23 313.23 426.95 322.42 436.45 333.36 446.59 345.04 456.77 357.54 466.38 369.79 476.33 382.14 485.11 394.06 491.49 404.77 496.85 415.47 498.41 423.84 496.46 429.71 493.15 435.49 486.74 438.86 478.19 440.08 468.96 441.97 458.3 442.93 447.14 443.81 435.88 447.21 424.43 451.88 413.46 457.64 402.48 465.81 392.93 472.76 384.9 477.31 376.66 481.17 369.63 481.29 363.83 477.87 357.43 473.13 351.84 465.51 347.17 456.08 341.57 446.21 336.68 435.36 332.98 424.34 328.59 413.32 326.19 403.16 325.81 393.89 325.51 384.22 327.55 374.76 331.7 365.44 336.17 355.11 342.62 344.49 350.56 334.19 358.65 323.49 367.97 314.13 378.04 307.65" stroke-dasharray="2 8" transform="rotate(76.76, 400, 400)" opacity="0.49"></path><path d="M380.21 318.36C388.89 314.23 397.7 313.75 406.33 316.49 415.13 320.8 424.03 327.75 432.72 336.34 441.79 345.66 450.78 355.89 459.08 366.11 467.52 376.5 474.86 386.6 480.17 395.65 485.5 408.24 480.35 423.62 471.31 427.12 464.12 429.68 455.56 431.66 446.35 433.57 437.04 437.35 427.35 441.88 417.85 446.93 408.34 453.72 399.88 459.41 392.58 463.25 385.12 466.85 378.57 467.64 373.02 465.64 367.02 462.84 361.69 457.54 357.22 450.41 352.08 442.95 347.63 434.21 344.31 424.76 340.45 415.3 338.32 406.05 337.89 397.19 337.44 388.06 338.93 378.89 342.17 369.82 345.58 360.16 350.7 350.41 357.18 341.21 363.74 331.94 371.52 323.93 380.21 318.36" stroke-dasharray="1 1" transform="rotate(80.80000000000001, 400, 400)" opacity="0.97"></path><path d="M383.86 329.08C391.16 325.45 398.75 324.63 406.31 326.31 413.99 329.09 421.79 334.01 429.37 340.36 437.17 347.31 444.77 355.19 451.68 363.27 458.61 371.51 464.56 379.67 468.84 387.11 473.33 397.55 470.16 411.41 463.47 415.57 458.11 418.62 451.5 421.32 444.19 423.88 436.78 427.73 428.87 431.93 420.89 436.21 412.92 441.69 405.62 446.18 399.15 449.24 389.61 452.83 373.6 448.97 367.03 441.97 362.45 436.53 358.53 429.72 355.63 421.88 352.34 414.04 350.52 405.93 350.11 397.87 349.62 389.67 350.7 381.28 353.21 372.99 355.78 364.43 359.77 355.93 364.97 348.09 370.19 340.34 376.56 333.72 383.86 329.08" stroke-dasharray="1 6" transform="rotate(84.84, 400, 400)" opacity="0.67"></path><path d="M388.72 339.79C400.54 334.48 413.86 337.4 426.24 345.69 438.98 355.65 450.66 368.49 457.52 380.29 463.14 392.08 461.56 400.43 454.71 405.65 446.89 412.62 435.17 419.44 422.37 425.5 409.57 434.56 398.09 439.2 389.21 438.09 379.57 436.35 371.5 428.54 366.95 416.09 361.39 403.65 360.84 389.16 364.69 375.24 368.53 361.03 376.89 347.73 388.72 339.79" stroke-dasharray="2 5" transform="rotate(88.88, 400, 400)" opacity="0.14"></path><path d="M394.43 350.5C403.42 346.14 413.68 347.39 423.13 352.54 432.69 358.64 441.26 367.3 446.2 376.08 450.46 384.87 449.68 392.09 445.09 397.46 439.98 403.86 431.76 409.97 422.17 414.79 412.57 421.27 403.46 424.42 396.12 423.61 388.4 422.7 381.91 417.39 378.27 408.17 374.05 398.94 373.63 387.7 376.48 376.92 379.25 366.22 385.44 356.38 394.43 350.5" stroke-dasharray="5 4" transform="rotate(92.92, 400, 400)" opacity="0.18"></path><path d="M400.56 361.22C412.73 355.72 428.34 363.35 434.88 375.06 440.23 386.75 433.04 398.2 420.3 404.07 407.55 412.86 394.41 411.29 389.59 399.15 383.71 387.01 388.39 369.44 400.56 361.22" stroke-dasharray="10 4" transform="rotate(96.96, 400, 400)" opacity="0.71"></path></g></svg>