<svg xmlns="http://www.w3.org/2000/svg" version="1.1" xmlns:xlink="http://www.w3.org/1999/xlink" xmlns:svgjs="http://svgjs.dev/svgjs" viewBox="0 0 1422 800"><defs><filter id="llleaves-blur-2" x="-100%" y="-100%" width="400%" height="400%"><feGaussianBlur in="SourceGraphic" stdDeviation="2"></feGaussianBlur></filter><filter id="llleaves-blur-3" x="-100%" y="-100%" width="400%" height="400%"><feGaussianBlur in="SourceGraphic" stdDeviation="4"></feGaussianBlur></filter><filter id="llleaves-blur-4" x="-100%" y="-100%" width="400%" height="400%"><feGaussianBlur in="SourceGraphic" stdDeviation="12"></feGaussianBlur></filter></defs><g fill="#db4a2b"><path d="M855 593H905C933 593 955 615 955 643H905C877 643 855 621 855 593Z " transform="matrix(0.00817698947517561,0.23415834170286315,-0.23415834170286315,0.00817698947517561,1042.3096796973355,401.03332126325034)" filter="url(#llleaves-blur-3)" opacity="0.36"></path><path d="M26 557H76C104 557 126 579 126 607H76C48 607 26 585 26 557Z " transform="matrix(-0.33723941013719,0.09670184475286159,-0.09670184475286159,-0.33723941013719,157.91066881659188,770.923996498627)" filter="url(#llleaves-blur-2)" opacity="0.54"></path><path d="M1112 314H1162C1190 314 1212 336 1212 364H1162C1134 364 1112 342 1112 314Z " transform="matrix(-0.2940044596566855,0.15632494414999654,-0.15632494414999654,-0.2940044596566855,1556.627338187917,257.0179267213204)" filter="url(#llleaves-blur-2)" opacity="0.51"></path><path d="M987 571H1037C1065 571 1087 593 1087 621H1037C1009 621 987 599 987 571Z " transform="matrix(-0.1413668792135957,0.24485461730540048,-0.24485461730540048,-0.1413668792135957,1329.5308056585177,426.34042186560276)" filter="url(#llleaves-blur-3)" opacity="0.43"></path><path d="M1312 40H1362C1390 40 1412 62 1412 90H1362C1334 90 1312 68 1312 40Z " transform="matrix(-0.27952426013388293,-0.357774737753325,0.357774737753325,-0.27952426013388293,1719.4566843483824,570.458269728731)" opacity="0.70"></path><path d="M190 572H240C268 572 290 594 290 622H240C212 622 190 600 190 572Z " transform="matrix(-0.14164221856521184,0.2453315190517227,-0.2453315190517227,-0.14164221856521184,420.45704932952924,622.680839911018)" filter="url(#llleaves-blur-3)" opacity="0.43"></path><path d="M11 400H61C89 400 111 422 111 450H61C33 450 11 428 11 400Z " transform="matrix(-0.33723941013719,0.09670184475286159,-0.09670184475286159,-0.33723941013719,122.66988803833476,562.4279367783812)" filter="url(#llleaves-blur-2)" opacity="0.54"></path><path d="M1134 575H1184C1212 575 1234 597 1234 625H1184C1156 625 1134 603 1134 575Z " transform="matrix(-0.2940044596566855,0.15632494414999654,-0.15632494414999654,-0.2940044596566855,1625.8962467235135,591.3139419204155)" filter="url(#llleaves-blur-2)" opacity="0.51"></path><path d="M133 316H183C211 316 233 338 233 366H183C155 366 133 344 133 316Z " transform="matrix(-0.2115193362045249,0.2190346845926448,-0.2190346845926448,-0.2115193362045249,296.39886597151997,373.044746365289)" filter="url(#llleaves-blur-2)" opacity="0.47"></path><path d="M596 185H646C674 185 696 207 696 235H646C618 235 596 213 596 185Z " transform="matrix(0.07661533552789065,0.18962960973516066,-0.18962960973516066,0.07661533552789065,636.3287112933664,71.41005165022915)" filter="url(#llleaves-blur-3)" opacity="0.31"></path><path d="M123 162H173C201 162 223 184 223 212H173C145 212 123 190 123 162Z " transform="matrix(-0.24532546668426478,0.19866064585703141,-0.19866064585703141,-0.24532546668426478,252.59084651164272,198.50757053669108)" filter="url(#llleaves-blur-2)" opacity="0.48"></path><path d="M8 60H58C86 60 108 82 108 110H58C30 110 8 88 8 60Z " transform="matrix(-0.35901331690910687,0.05045603122768017,-0.05045603122768017,-0.35901331690910687,83.111535035081,112.58968212606862)" filter="url(#llleaves-blur-2)" opacity="0.56"></path><path d="M1196 209H1246C1274 209 1296 231 1296 259H1246C1218 259 1196 237 1196 209Z " transform="matrix(-0.37407702991698005,0.006529538845355651,-0.006529538845355651,-0.37407702991698005,1713.6278913663702,313.3982195992602)" filter="url(#llleaves-blur-2)" opacity="0.57"></path><path d="M1303 710H1353C1381 710 1403 732 1403 760H1353C1325 760 1303 738 1303 710Z " transform="matrix(-0.37032595828936526,-0.18869050035684365,0.18869050035684365,-0.37032595828936526,1715.3635038032312,1262.4878263254927)" opacity="0.64"></path><path d="M1289 582H1339C1367 582 1389 604 1389 632H1339C1311 632 1289 610 1289 582Z " transform="matrix(-0.37032595828936526,-0.18869050035684365,0.18869050035684365,-0.37032595828936526,1720.331324432856,1084.4444366594585)" opacity="0.64"></path></g><g fill="none" stroke-width="3" stroke="#db4a2b"><path d="M376 299H426C454 299 476 321 476 349H426C398 349 376 327 376 299Z " transform="matrix(0.012159258699236444,0.2320124772615783,-0.2320124772615783,0.012159258699236444,495.99219842687666,221.22308486801504)" filter="url(#llleaves-blur-3)" opacity="0.35"></path><path d="M474 575H524C552 575 574 597 574 625H524C496 625 474 603 474 575Z " transform="matrix(0.0521730852213912,0.20925481544969643,-0.20925481544969643,0.0521730852213912,622.2141926138089,459.0466255715244)" filter="url(#llleaves-blur-3)" opacity="0.33"></path><path d="M583 458H633C661 458 683 480 683 508H633C605 508 583 486 583 458Z " transform="matrix(0.07661533552789065,0.18962960973516066,-0.18962960973516066,0.07661533552789065,676.0935941129278,325.95924997767213)" filter="url(#llleaves-blur-3)" opacity="0.31"></path><path d="M1194 56H1244C1272 56 1294 78 1294 106H1244C1216 106 1194 84 1194 56Z " transform="matrix(-0.37879050289617056,-0.1530412972673408,0.1530412972673408,-0.37879050289617056,1702.8190405241817,302.06540453516175)" opacity="0.63"></path><path d="M135 33H185C213 33 235 55 235 83H185C157 83 135 61 135 33Z " transform="matrix(-0.2022780821580038,0.22465256952032667,-0.22465256952032667,-0.2022780821580038,235.4512942314097,28.17140340390379)" filter="url(#llleaves-blur-2)" opacity="0.46"></path><path d="M407 38H457C485 38 507 60 507 88H457C429 88 407 66 407 38Z " transform="matrix(0.03853293265177735,0.21853112040457842,-0.21853112040457842,0.03853293265177735,453.1579103636262,-39.296296781954325)" filter="url(#llleaves-blur-3)" opacity="0.34"></path><path d="M274 703H324C352 703 374 725 374 753H324C296 753 274 731 274 703Z " transform="matrix(-0.07717504458837135,0.25242819667350486,-0.25242819667350486,-0.07717504458837135,532.772441624944,702.3966967381187)" filter="url(#llleaves-blur-3)" opacity="0.40"></path><path d="M842 160H892C920 160 942 182 942 210H892C864 210 842 188 842 160Z " transform="matrix(0.00817698947517561,0.23415834170286315,-0.23415834170286315,0.00817698947517561,928.025418603173,-25.381983851861435)" filter="url(#llleaves-blur-3)" opacity="0.36"></path><path d="M821 308H871C899 308 921 330 921 358H871C843 358 821 336 821 308Z " transform="matrix(0.027680345027712237,0.22543831915155244,-0.22543831915155244,0.027680345027712237,921.9613797583296,127.42566912476966)" filter="url(#llleaves-blur-3)" opacity="0.35"></path><path d="M817 35H867C895 35 917 57 917 85H867C839 85 817 63 817 35Z " transform="matrix(1.4499239833269095e-17,0.2367905561565021,-0.2367905561565021,1.4499239833269095e-17,881.2074333693902,-145.2974121876873)" filter="url(#llleaves-blur-3)" opacity="0.36"></path><path d="M1074 34H1124C1152 34 1174 56 1174 84H1124C1096 84 1074 62 1074 34Z " transform="matrix(-0.29360128998508955,0.15611057503304912,-0.15611057503304912,-0.29360128998508955,1463.2183738701906,-99.1458102280269)" filter="url(#llleaves-blur-2)" opacity="0.51"></path><path d="M8 236H58C86 236 108 258 108 286H58C30 286 8 264 8 236Z " transform="matrix(-0.3593517529773762,0.05050359531520814,-0.05050359531520814,-0.3593517529773762,92.02384004995714,351.8615989988131)" filter="url(#llleaves-blur-2)" opacity="0.56"></path></g></svg>