<?xml version="1.0" standalone="no"?>
<!DOCTYPE svg PUBLIC "-//W3C//DTD SVG 20010904//EN"
 "http://www.w3.org/TR/2001/REC-SVG-20010904/DTD/svg10.dtd">
<svg version="1.0" xmlns="http://www.w3.org/2000/svg"
 width="500.000000pt" height="500.000000pt" viewBox="0 0 500.000000 500.000000"
 preserveAspectRatio="xMidYMid meet">

<g transform="translate(0.000000,500.000000) scale(0.100000,-0.100000)"
fill="#000000" stroke="none">
<path d="M2160 2760 l0 -520 140 0 140 0 0 520 0 520 -140 0 -140 0 0 -520z"/>
<path d="M2550 2760 l0 -520 114 0 115 0 12 55 12 54 53 -48 c65 -59 116 -75
221 -69 170 10 261 108 285 307 29 232 -55 421 -205 462 -50 14 -138 17 -189
6 -20 -4 -60 -23 -87 -42 l-51 -35 0 175 0 175 -140 0 -140 0 0 -520z m495 20
c49 -46 60 -220 18 -292 -28 -48 -88 -68 -145 -48 -60 21 -88 77 -88 177 0
135 48 198 143 190 31 -3 56 -12 72 -27z"/>
<path d="M1483 3010 c-54 -11 -111 -41 -146 -75 -76 -77 -101 -168 -95 -345 6
-145 22 -199 82 -267 51 -59 106 -85 188 -91 96 -7 151 4 208 43 l50 34 0
-175 0 -174 140 0 140 0 0 520 0 520 -113 0 -114 0 -12 -56 -13 -56 -33 40
c-58 67 -181 103 -282 82z m238 -226 c35 -31 49 -78 49 -165 0 -95 -18 -142
-64 -170 -37 -23 -75 -24 -122 -4 -49 20 -64 62 -64 180 0 107 13 145 58 170
36 20 115 14 143 -11z"/>
<path d="M3430 2380 l0 -140 150 0 150 0 0 140 0 140 -150 0 -150 0 0 -140z"/>
<path d="M2476 2040 c-4 -28 -10 -58 -13 -67 -5 -14 0 -15 41 -11 59 7 86 30
86 74 0 39 -21 54 -73 54 -34 0 -35 -1 -41 -50z m82 -1 c3 -28 -20 -59 -44
-59 -15 0 -18 29 -8 68 9 33 48 26 52 -9z"/>
<path d="M2616 2053 c-4 -21 -9 -50 -12 -65 -4 -20 -2 -28 9 -28 9 0 17 14 21
38 4 20 9 49 12 65 4 19 2 27 -9 27 -9 0 -17 -14 -21 -37z"/>
<path d="M2681 2064 c-25 -32 -27 -67 -5 -88 18 -19 50 -21 60 -5 4 8 9 7 15
-2 8 -12 11 -11 19 1 5 8 10 25 10 38 0 17 -6 22 -25 22 -26 0 -35 -15 -13
-22 18 -6 0 -28 -23 -28 -24 0 -33 21 -25 55 8 33 31 41 62 25 28 -16 42 -7
24 15 -21 25 -75 19 -99 -11z"/>
<path d="M2816 2075 c-3 -8 -8 -38 -12 -66 -6 -41 -4 -51 7 -47 18 6 41 128
23 128 -6 0 -14 -7 -18 -15z"/>
<path d="M2860 2080 c0 -5 9 -10 21 -10 17 0 20 -5 16 -22 -18 -79 -19 -88 -4
-88 11 0 18 16 24 53 7 43 12 53 31 55 44 7 21 22 -33 22 -30 0 -55 -4 -55
-10z"/>
<path d="M2990 2030 c-35 -68 -35 -70 -16 -70 8 0 18 9 21 20 4 13 15 20 31
20 17 0 24 -5 24 -20 0 -12 7 -20 16 -20 14 0 15 8 10 48 -10 70 -16 82 -37
82 -13 0 -28 -18 -49 -60z m46 -7 c-11 -11 -19 6 -11 24 8 17 8 17 12 0 3 -10
2 -21 -1 -24z"/>
<path d="M3116 2075 c-3 -8 -8 -37 -12 -65 l-7 -50 47 0 c34 0 46 4 46 15 0
10 -10 15 -30 15 -33 0 -34 5 -21 63 7 28 6 37 -4 37 -7 0 -15 -7 -19 -15z"/>
<path d="M3250 2030 c-35 -68 -35 -70 -16 -70 8 0 18 9 21 20 4 13 15 20 31
20 17 0 24 -5 24 -20 0 -12 7 -20 16 -20 14 0 15 8 10 48 -10 70 -16 82 -37
82 -13 0 -28 -18 -49 -60z m46 -7 c-11 -11 -19 6 -11 24 8 17 8 17 12 0 3 -10
2 -21 -1 -24z"/>
<path d="M3397 2079 c-24 -14 -39 -54 -31 -85 7 -28 47 -42 68 -25 11 9 15 9
18 0 7 -22 28 1 28 32 0 24 -4 29 -25 29 -26 0 -34 -15 -12 -23 9 -3 9 -7 0
-17 -13 -14 -41 -7 -49 13 -2 7 0 26 5 40 8 20 18 27 36 27 14 0 25 -4 25 -10
0 -5 7 -10 15 -10 18 0 19 12 3 28 -15 15 -57 15 -81 1z"/>
<path d="M3516 2063 c-3 -16 -8 -45 -12 -65 l-6 -38 45 0 c25 0 49 5 52 10 4
6 -8 10 -30 10 -29 0 -36 3 -33 18 2 11 14 18 36 20 40 4 42 22 2 22 -20 0
-30 5 -30 15 0 10 11 15 35 15 19 0 35 5 35 10 0 6 -20 10 -44 10 -40 0 -45
-2 -50 -27z"/>
<path d="M3626 2040 c-4 -28 -9 -57 -12 -65 -4 -9 0 -15 10 -15 11 0 18 13 22
40 4 22 10 40 14 40 4 0 12 -18 19 -40 8 -28 17 -40 31 -40 25 0 27 4 35 73 5
39 4 57 -4 57 -6 0 -13 -12 -17 -27 -13 -65 -20 -69 -33 -20 -11 38 -18 47
-36 47 -19 0 -23 -7 -29 -50z"/>
<path d="M3790 2070 c-22 -22 -27 -79 -8 -98 7 -7 22 -12 34 -12 26 0 79 39
54 40 -9 0 -21 -5 -27 -11 -7 -7 -19 -9 -27 -6 -19 8 -21 58 -4 75 15 15 48
16 48 2 0 -5 7 -10 15 -10 18 0 19 12 3 28 -19 19 -66 14 -88 -8z"/>
<path d="M3920 2085 c0 -3 6 -21 14 -39 8 -18 12 -45 9 -60 -4 -19 -1 -26 11
-26 10 0 16 9 16 23 0 12 14 40 31 62 35 46 20 64 -16 19 l-23 -29 -7 28 c-4
15 -13 27 -21 27 -8 0 -14 -2 -14 -5z"/>
</g>
</svg>
