<svg xmlns="http://www.w3.org/2000/svg" version="1.1" xmlns:xlink="http://www.w3.org/1999/xlink" xmlns:svgjs="http://svgjs.dev/svgjs" viewBox="0 0 2400 800" opacity="1"><g fill="hsl(32, 100%, 51%)" transform="matrix(1,0,0,1,0,-94.59402465820312)"><path d="M 0 317.69148831625733 Q 450 599.3256047867036 600 318.37607202054573 Q 1050 541.3885263227542 1200 317.1880940317734 Q 1650 649.1697925925617 1800 318.8747902792173 Q 2250 474.0974501479247 2400 319.7361496350279 L 2400 800 L 0 800 L 0 323.2946609841243 Z" transform="matrix(1,0,0,1,0,68)" opacity="0.05"></path><path d="M 0 317.69148831625733 Q 450 599.3256047867036 600 318.37607202054573 Q 1050 541.3885263227542 1200 317.1880940317734 Q 1650 649.1697925925617 1800 318.8747902792173 Q 2250 474.0974501479247 2400 319.7361496350279 L 2400 800 L 0 800 L 0 323.2946609841243 Z" transform="matrix(1,0,0,1,0,136)" opacity="0.53"></path><path d="M 0 317.69148831625733 Q 450 599.3256047867036 600 318.37607202054573 Q 1050 541.3885263227542 1200 317.1880940317734 Q 1650 649.1697925925617 1800 318.8747902792173 Q 2250 474.0974501479247 2400 319.7361496350279 L 2400 800 L 0 800 L 0 323.2946609841243 Z" transform="matrix(1,0,0,1,0,204)" opacity="1.00"></path></g></svg>